<?xml version="1.0" standalone="no"?>
<!DOCTYPE svg PUBLIC "-//W3C//DTD SVG 20010904//EN"
 "http://www.w3.org/TR/2001/REC-SVG-20010904/DTD/svg10.dtd">
<svg version="1.0" xmlns="http://www.w3.org/2000/svg"
 width="200.000000pt" height="200.000000pt" viewBox="0 0 200.000000 200.000000"
 preserveAspectRatio="xMidYMid meet">
<metadata>
Created by potrace 1.11, written by Peter Selinger 2001-2013
</metadata>
<g transform="translate(0.000000,200.000000) scale(0.100000,-0.100000)"
fill="#000000" stroke="none">
<path d="M995 1831 c-28 -10 -68 -27 -90 -39 -34 -17 -101 -40 -142 -48 -32
-6 -271 -126 -293 -146 -96 -91 -253 -266 -293 -326 -70 -105 -101 -179 -133
-317 -3 -11 -7 -49 -10 -85 -3 -36 -12 -90 -20 -120 l-16 -55 34 -28 c51 -42
321 -197 398 -227 19 -7 82 -35 139 -62 57 -26 110 -48 117 -48 8 0 14 -4 14
-9 0 -5 8 -11 18 -14 9 -3 76 -26 147 -52 72 -26 141 -49 155 -51 14 -3 70
-13 125 -24 55 -10 132 -22 170 -26 105 -10 304 -11 355 -3 25 5 63 10 85 12
72 7 88 23 66 65 -17 30 -48 135 -55 184 l-7 47 39 11 c48 12 65 31 65 72 0
23 -8 38 -33 58 -32 26 -33 28 -13 38 11 6 31 9 43 7 47 -9 123 39 135 86 5
21 1 31 -21 48 -27 21 -27 22 -11 50 30 51 22 80 -34 133 -46 44 -52 53 -54
96 -4 63 -23 191 -34 222 -5 14 -14 43 -20 65 -6 22 -27 58 -46 80 -20 22 -63
76 -97 119 -107 139 -218 219 -373 270 -103 33 -245 41 -310 17z"/>
</g>
</svg>
