<svg viewBox="0 0 58.483 58.483" fill="currentColor">
	<path d="M52.19,18.504c-1.104,7.352-11.397,8.823-11.397,6.433S41.528,8.762,37.667,7.66c-3.86-1.104-2.39-6.801-4.412-7.353
		c-1.523-0.416-3.252-0.314-4.014-0.238c-0.762-0.075-2.492-0.177-4.015,0.238c-2.022,0.551-0.551,6.25-4.412,7.353
		c-3.86,1.103-3.125,14.888-3.125,17.278S7.397,25.856,6.294,18.504C5.19,11.152-4,28.981,5.007,36.15
		c8.16,6.495,21.75,6.502,24.234,6.446c2.484,0.056,16.074,0.049,24.233-6.446C62.483,28.981,53.292,11.152,52.19,18.504z
		 M21.183,22.595c-0.761,0-1.378-0.618-1.378-1.378s0.618-1.378,1.378-1.378c0.762,0,1.378,0.618,1.378,1.378
		S21.945,22.595,21.183,22.595z M26.146,23.697c-0.761,0-1.378-0.617-1.378-1.378c0-0.761,0.618-1.378,1.378-1.378
		c0.761,0,1.378,0.618,1.378,1.378C27.525,23.081,26.907,23.697,26.146,23.697z M32.763,23.697c-0.762,0-1.378-0.617-1.378-1.378
		c0-0.761,0.617-1.378,1.378-1.378c0.762,0,1.378,0.618,1.378,1.378C34.141,23.081,33.525,23.697,32.763,23.697z M37.725,22.595
		c-0.761,0-1.377-0.618-1.377-1.378s0.617-1.378,1.377-1.378c0.761,0,1.379,0.618,1.379,1.378S38.487,22.595,37.725,22.595z"/>
	<path d="M44.018,49.43c-0.411,2.777-2.33,2.777-2.33,2.777l-0.2,0.021v-0.021h-5.104l-4.052-4.052
		c-0.509,0.836-1.421,1.399-2.471,1.399c-1.14,0-2.116-0.662-2.591-1.617L23,52.207h-4.967c0,0-1.921,0-2.333-2.777
		c-0.454-3.067-5.966,18.464,13.991,4.013h0.336C49.985,67.894,44.473,46.362,44.018,49.43z"/>
</svg>
