<?xml version="1.0" encoding="iso-8859-1"?>
<!-- Generator: Adobe Illustrator 16.0.0, SVG Export Plug-In . SVG Version: 6.00 Build 0)  -->
<!DOCTYPE svg PUBLIC "-//W3C//DTD SVG 1.1//EN" "http://www.w3.org/Graphics/SVG/1.1/DTD/svg11.dtd">
<svg version="1.1" id="Capa_1" xmlns="http://www.w3.org/2000/svg" xmlns:xlink="http://www.w3.org/1999/xlink" x="0px" y="0px"
	 width="55.43px" height="55.43px" viewBox="0 0 55.43 55.43" style="enable-background:new 0 0 55.43 55.43;" xml:space="preserve"
	>
<g>
	<g>
		<path d="M48.498,31.889c0-2.862-2.342-5.452-6.124-7.323c0.092,1.926,0.248,4.054,0.495,6.446l0.022,0.22l-0.096,0.197
			c-0.098,0.205-2.546,5.018-15.217,5.018c-0.432,0-0.781-0.351-0.781-0.781c0-0.023,0.012-0.043,0.014-0.066
			c0.035-0.395,0.353-0.706,0.755-0.713c0.004,0,0.008-0.002,0.012-0.002c0.571,0,1.111-0.013,1.638-0.032
			c8.891-0.322,11.548-3.228,12.069-3.946c-0.267-2.634-0.428-4.968-0.511-7.049c-0.362-9.194,0.838-13.373,1.546-15.831
			c0.627-2.172,0.722-2.507-0.783-4.012c-2.86-2.861-9.015-3.684-12.321-3.919c-0.531-0.037-0.986-0.061-1.347-0.074
			C27.375,0.002,27.069,0,27.02,0v0.006c-3.627-0.031-10.78,0.331-13.904,3.455c-3.843,3.843,1.31,2.876,0.511,20.847
			c-4.107,1.888-6.694,4.582-6.694,7.581c0,5.706,9.305,10.331,20.783,10.331C39.192,42.222,48.498,37.596,48.498,31.889z
			 M14.216,7.653c0.183-0.39,0.646-0.558,1.04-0.375c0.028,0.014,0.691,0.317,1.83,0.708c2.07,0.71,5.727,1.709,10.085,1.806
			c0.666,0.015,1.35,0.008,2.045-0.023c2.704-0.125,5.605-0.637,8.521-1.782c0.546-0.215,1.091-0.444,1.636-0.705
			c0.391-0.187,0.855-0.021,1.042,0.368c0.188,0.389,0.022,0.855-0.367,1.042c-3.718,1.78-7.436,2.522-10.833,2.679
			c-0.485,0.023-0.963,0.033-1.434,0.033c-0.199,0-0.391-0.008-0.585-0.012c-7.017-0.131-12.271-2.54-12.606-2.698
			C14.201,8.507,14.033,8.043,14.216,7.653z"/>
		<path d="M31.687,47.999c-0.053-0.026-0.08-0.041-0.08-0.041c-1.308-0.513-2.787,0.145-3.308,1.467
			c-0.519,1.324,0.119,2.813,1.426,3.326c0.179,0.069,0.36,0.113,0.543,0.141c1.992,0.517,8.964,2.28,11.895,2.482
			c3.745,0.577,2.639-3.495,2.335-1.827c-0.275,1.52-4.39-0.843-4.39-0.843v0.003c-3.337-2.027-6.81-3.868-8.037-4.509
			C31.951,48.121,31.821,48.056,31.687,47.999z"/>
		<path d="M11.04,52.997c-0.248-1.676-1.487,2.358,2.275,1.903c2.936-0.104,9.959-1.639,11.969-2.09
			c0.183-0.021,0.365-0.06,0.546-0.123c1.323-0.471,2.011-1.937,1.535-3.277c-0.476-1.34-1.935-2.046-3.258-1.576
			c0,0-0.028,0.014-0.08,0.039c-0.137,0.054-0.27,0.111-0.391,0.187c-1.247,0.601-4.777,2.326-8.179,4.242l0.001-0.001
			C15.458,52.3,11.266,54.527,11.04,52.997z"/>
	</g>
</g>
<g>
</g>
<g>
</g>
<g>
</g>
<g>
</g>
<g>
</g>
<g>
</g>
<g>
</g>
<g>
</g>
<g>
</g>
<g>
</g>
<g>
</g>
<g>
</g>
<g>
</g>
<g>
</g>
<g>
</g>
</svg>
