<svg viewBox="0 0 21.787 21.787" fill="currentColor">
	<path d="M14.138,10.699c-0.185,0.442-0.621,0.752-1.13,0.752c-0.676,0-1.223-0.548-1.223-1.224
		s0.548-1.224,1.223-1.224c0.218,0,0.422,0.057,0.599,0.156l-2.949-8.539c0.365-0.017,0.716-0.042,1.059-0.026
		c0.175,0.005,0.365,0.014,0.518,0.111c0.156,0.094,0.244,0.27,0.253,0.445c0.003,0.044,0.003,0.088,0,0.132
		c-0.001,0.022-0.004,0.044-0.006,0.066l-0.005,0.073c-0.003,0.103,0.004,0.203,0.029,0.306c0.024,0.102,0.067,0.205,0.133,0.297
		c0.065,0.092,0.158,0.165,0.258,0.213c0.204,0.093,0.419,0.095,0.614,0.062c0.196-0.035,0.38-0.104,0.546-0.205l-0.009-0.022
		c-0.188,0.028-0.373,0.045-0.552,0.044c-0.177-0.004-0.352-0.028-0.488-0.101c-0.137-0.069-0.235-0.188-0.289-0.346
		c-0.028-0.078-0.042-0.166-0.054-0.25L12.658,1.35c-0.003-0.025-0.006-0.05-0.011-0.074c-0.008-0.05-0.019-0.099-0.034-0.148
		c-0.113-0.399-0.489-0.645-0.876-0.725c-0.197-0.035-0.394-0.02-0.584,0.014c-0.177,0.033-0.35,0.085-0.51,0.166l-0.034-0.097
		L9.379,4.353c0.19-0.156,0.434-0.249,0.699-0.249c0.611,0,1.107,0.495,1.107,1.106s-0.495,1.107-1.107,1.107
		c-0.51,0-0.937-0.345-1.066-0.813L6.878,12.2c0.224-0.266,0.56-0.435,0.935-0.435c0.676,0,1.224,0.548,1.224,1.224
		s-0.548,1.224-1.224,1.224c-0.642,0-1.167-0.494-1.219-1.122l-1.031,3.236l1.124-0.163l0.555-1.124l0.555,1.124l1.24,0.18
		L8.14,17.219l0.212,1.236l-1.11-0.583l-1.109,0.583l0.211-1.236l-0.813-0.792l-1.708,5.361h14.142L14.138,10.699z M12.408,13.632
		c0.32,0,0.58,0.26,0.58,0.579c0,0.321-0.26,0.58-0.58,0.58c-0.32,0-0.579-0.26-0.579-0.58
		C11.829,13.892,12.088,13.632,12.408,13.632z M11.259,6.997c0.201,0,0.365,0.163,0.365,0.365c0,0.202-0.163,0.365-0.365,0.365
		c-0.202,0-0.365-0.163-0.365-0.365C10.894,7.16,11.057,6.997,11.259,6.997z M10.078,7.61c0.385,0,0.697,0.312,0.697,0.697
		c0,0.385-0.313,0.697-0.697,0.697c-0.384,0-0.697-0.313-0.697-0.697C9.381,7.923,9.694,7.61,10.078,7.61z M9.821,10.073
		l0.257-0.521l0.257,0.521l0.576,0.083l-0.416,0.407l0.098,0.573l-0.515-0.271l-0.515,0.271l0.098-0.573l-0.416-0.407
		C9.245,10.157,9.821,10.073,9.821,10.073z M9.821,13.15l0.257-0.522l0.257,0.522l0.576,0.084l-0.416,0.406l0.098,0.573
		l-0.515-0.271l-0.515,0.271l0.098-0.573l-0.416-0.406C9.245,13.234,9.821,13.15,9.821,13.15z M10.078,20.705
		c-0.729,0-1.319-0.591-1.319-1.32c0-0.728,0.591-1.319,1.319-1.319c0.728,0,1.319,0.592,1.319,1.319
		C11.398,20.114,10.806,20.705,10.078,20.705z M12.018,18.182l-0.514,0.271l0.097-0.573l-0.416-0.406l0.575-0.083l0.258-0.522
		l0.258,0.522l0.576,0.083l-0.416,0.406l0.098,0.573L12.018,18.182z M13.501,21.198c-0.404,0-0.73-0.328-0.73-0.731
		c0-0.403,0.327-0.73,0.73-0.73c0.403,0,0.73,0.327,0.73,0.73C14.231,20.87,13.905,21.198,13.501,21.198z M14.462,18.066
		c-0.729,0-1.32-0.591-1.32-1.32c0-0.728,0.591-1.319,1.32-1.319c0.728,0,1.32,0.591,1.32,1.319
		C15.782,17.475,15.191,18.066,14.462,18.066z M11.648,0.117c0.181,0.013,0.356,0.077,0.506,0.177
		c0.154,0.1,0.274,0.233,0.401,0.38c0.125,0.144,0.245,0.292,0.366,0.442c0.126,0.147,0.246,0.298,0.421,0.425
		c0.044,0.032,0.094,0.062,0.154,0.083c0.06,0.021,0.141,0.032,0.214,0.002c0.072-0.029,0.118-0.078,0.153-0.125
		c0.035-0.047,0.057-0.095,0.077-0.143c0.078-0.192,0.105-0.385,0.125-0.579l-0.023-0.005c-0.08,0.176-0.155,0.356-0.248,0.51
		c-0.047,0.073-0.107,0.142-0.15,0.147c-0.019,0.003-0.038,0-0.068-0.013c-0.029-0.014-0.061-0.037-0.092-0.063
		c-0.129-0.11-0.258-0.255-0.389-0.392l-0.402-0.416c-0.132-0.137-0.281-0.283-0.458-0.382C12.059,0.062,11.856,0.001,11.653,0
		c-0.204,0-0.4,0.054-0.576,0.14c-0.176,0.086-0.336,0.2-0.474,0.338l0.008,0.008l0.008,0.008
		C10.909,0.253,11.282,0.087,11.648,0.117z"/>
</svg>
